<?xml version="1.0" encoding="UTF-8"?>
<?xml-stylesheet href="https://cdnjs.cloudflare.com/ajax/libs/font-awesome/6.5.1/css/all.min.css" type="text/css"?>
<svg aria-roledescription="er" role="graphics-document document" viewBox="-146.08592987060547 0 1053.1875 964" style="max-width: 100%; max-height: 100%; background: white;" xmlns="http://www.w3.org/2000/svg" width="100%" id="mermaid-image-editor"><style>#mermaid-image-editor{font-family:"trebuchet ms",verdana,arial,sans-serif;font-size:16px;fill:#333;}#mermaid-image-editor .error-icon{fill:#552222;}#mermaid-image-editor .error-text{fill:#552222;stroke:#552222;}#mermaid-image-editor .edge-thickness-normal{stroke-width:1px;}#mermaid-image-editor .edge-thickness-thick{stroke-width:3.5px;}#mermaid-image-editor .edge-pattern-solid{stroke-dasharray:0;}#mermaid-image-editor .edge-thickness-invisible{stroke-width:0;fill:none;}#mermaid-image-editor .edge-pattern-dashed{stroke-dasharray:3;}#mermaid-image-editor .edge-pattern-dotted{stroke-dasharray:2;}#mermaid-image-editor .marker{fill:#333333;stroke:#333333;}#mermaid-image-editor .marker.cross{stroke:#333333;}#mermaid-image-editor svg{font-family:"trebuchet ms",verdana,arial,sans-serif;font-size:16px;}#mermaid-image-editor p{margin:0;}#mermaid-image-editor .entityBox{fill:#ECECFF;stroke:#9370DB;}#mermaid-image-editor .attributeBoxOdd{fill:#ffffff;stroke:#9370DB;}#mermaid-image-editor .attributeBoxEven{fill:#f2f2f2;stroke:#9370DB;}#mermaid-image-editor .relationshipLabelBox{fill:hsl(80, 100%, 96.2745098039%);opacity:0.7;background-color:hsl(80, 100%, 96.2745098039%);}#mermaid-image-editor .relationshipLabelBox rect{opacity:0.5;}#mermaid-image-editor .relationshipLine{stroke:#333333;}#mermaid-image-editor .entityTitleText{text-anchor:middle;font-size:18px;fill:#333;}#mermaid-image-editor #MD_PARENT_START{fill:#f5f5f5!important;stroke:#333333!important;stroke-width:1;}#mermaid-image-editor #MD_PARENT_END{fill:#f5f5f5!important;stroke:#333333!important;stroke-width:1;}#mermaid-image-editor :root{--mermaid-font-family:"trebuchet ms",verdana,arial,sans-serif;}</style><g></g><defs><marker orient="auto" markerHeight="240" markerWidth="190" refY="7" refX="0" id="MD_PARENT_START"><path d="M 18,7 L9,13 L1,7 L9,1 Z"></path></marker></defs><defs><marker orient="auto" markerHeight="28" markerWidth="20" refY="7" refX="19" id="MD_PARENT_END"><path d="M 18,7 L9,13 L1,7 L9,1 Z"></path></marker></defs><defs><marker orient="auto" markerHeight="18" markerWidth="18" refY="9" refX="0" id="ONLY_ONE_START"><path d="M9,0 L9,18 M15,0 L15,18" fill="none" stroke="gray"></path></marker></defs><defs><marker orient="auto" markerHeight="18" markerWidth="18" refY="9" refX="18" id="ONLY_ONE_END"><path d="M3,0 L3,18 M9,0 L9,18" fill="none" stroke="gray"></path></marker></defs><defs><marker orient="auto" markerHeight="18" markerWidth="30" refY="9" refX="0" id="ZERO_OR_ONE_START"><circle r="6" cy="9" cx="21" fill="white" stroke="gray"></circle><path d="M9,0 L9,18" fill="none" stroke="gray"></path></marker></defs><defs><marker orient="auto" markerHeight="18" markerWidth="30" refY="9" refX="30" id="ZERO_OR_ONE_END"><circle r="6" cy="9" cx="9" fill="white" stroke="gray"></circle><path d="M21,0 L21,18" fill="none" stroke="gray"></path></marker></defs><defs><marker orient="auto" markerHeight="36" markerWidth="45" refY="18" refX="18" id="ONE_OR_MORE_START"><path d="M0,18 Q 18,0 36,18 Q 18,36 0,18 M42,9 L42,27" fill="none" stroke="gray"></path></marker></defs><defs><marker orient="auto" markerHeight="36" markerWidth="45" refY="18" refX="27" id="ONE_OR_MORE_END"><path d="M3,9 L3,27 M9,18 Q27,0 45,18 Q27,36 9,18" fill="none" stroke="gray"></path></marker></defs><defs><marker orient="auto" markerHeight="36" markerWidth="57" refY="18" refX="18" id="ZERO_OR_MORE_START"><circle r="6" cy="18" cx="48" fill="white" stroke="gray"></circle><path d="M0,18 Q18,0 36,18 Q18,36 0,18" fill="none" stroke="gray"></path></marker></defs><defs><marker orient="auto" markerHeight="36" markerWidth="57" refY="18" refX="39" id="ZERO_OR_MORE_END"><circle r="6" cy="18" cx="9" fill="white" stroke="gray"></circle><path d="M21,18 Q39,0 57,18 Q39,36 21,18" fill="none" stroke="gray"></path></marker></defs><path marker-start="url(#ONLY_ONE_START)" marker-end="url(#ZERO_OR_MORE_END)" style="stroke: gray; fill: none;" d="M319.094,110L319.094,118.333C319.094,126.667,319.094,143.333,319.094,165.5C319.094,187.667,319.094,215.333,319.094,229.167L319.094,243" class="er relationshipLine"></path><path marker-start="url(#ONLY_ONE_START)" marker-end="url(#ZERO_OR_MORE_END)" style="stroke: gray; fill: none;" d="M265.012,87.287L235.604,99.406C206.197,111.525,147.382,135.762,117.974,158.048C88.566,180.333,88.566,200.667,88.566,210.833L88.566,221" class="er relationshipLine"></path><path marker-start="url(#ONLY_ONE_START)" marker-end="url(#ZERO_OR_MORE_END)" style="stroke: gray; fill: none;" d="M373.176,75.453L446.078,89.544C518.98,103.636,664.785,131.818,737.688,156.076C810.59,180.333,810.59,200.667,810.59,210.833L810.59,221" class="er relationshipLine"></path><path marker-start="url(#ONLY_ONE_START)" marker-end="url(#ZERO_OR_MORE_END)" style="stroke: gray; fill: none;" d="M373.176,86.545L403.908,98.787C434.639,111.03,496.103,135.515,526.835,156.091C557.566,176.667,557.566,193.333,557.566,201.667L557.566,210" class="er relationshipLine"></path><path marker-start="url(#ONLY_ONE_START)" marker-end="url(#ZERO_OR_MORE_END)" style="stroke: gray; fill: none;" d="M265.012,77.874L207.51,91.561C150.008,105.249,35.004,132.625,-22.498,167.646C-80,202.667,-80,245.333,-80,288C-80,330.667,-80,373.333,-80,414.167C-80,455,-80,494,-80,533C-80,572,-80,611,-18.614,654.211C42.773,697.422,165.546,744.845,226.932,768.556L288.318,792.267" class="er relationshipLine"></path><path marker-start="url(#ONLY_ONE_START)" marker-end="url(#ZERO_OR_MORE_END)" style="stroke: gray; fill: none;" d="M319.094,333L319.094,346.833C319.094,360.667,319.094,388.333,319.094,410.5C319.094,432.667,319.094,449.333,319.094,457.667L319.094,466" class="er relationshipLine"></path><path marker-start="url(#ONLY_ONE_START)" marker-end="url(#ZERO_OR_MORE_END)" style="stroke: gray; fill: none;" d="M810.59,578L810.59,590C810.59,602,810.59,626,749.203,661.711C687.817,697.422,565.044,744.845,503.658,768.556L442.271,792.267" class="er relationshipLine"></path><path marker-start="url(#ONLY_ONE_START)" marker-end="url(#ONLY_ONE_END)" style="stroke: gray; fill: none;" d="M810.59,355L810.59,365.167C810.59,375.333,810.59,395.667,810.59,417.833C810.59,440,810.59,464,810.59,476L810.59,488" class="er relationshipLine"></path><g transform="translate(265.01171875,20 )" id="entity-Organisation-518a46ab-c0d9-51dd-a3f7-35b8cdca7211"><rect height="90" width="108.1640625" y="0" x="0" class="er entityBox"></rect><text transform="translate(54.08203125,12)" style="dominant-baseline: middle; text-anchor: middle; font-size: 12px;" y="0" x="0" id="text-entity-Organisation-518a46ab-c0d9-51dd-a3f7-35b8cdca7211" class="er entityLabel">Organisation</text><rect height="22" width="51.6328125" y="24" x="0" class="er attributeBoxOdd"></rect><text transform="translate(5,35)" style="dominant-baseline: middle; font-size: 10.2px;" y="0" x="0" id="text-entity-Organisation-518a46ab-c0d9-51dd-a3f7-35b8cdca7211-attr-1-type" class="er entityLabel">int</text><rect height="22" width="34.96875" y="24" x="51.6328125" class="er attributeBoxOdd"></rect><text transform="translate(56.6328125,35)" style="dominant-baseline: middle; font-size: 10.2px;" y="0" x="0" id="text-entity-Organisation-518a46ab-c0d9-51dd-a3f7-35b8cdca7211-attr-1-name" class="er entityLabel">id</text><rect height="22" width="21.5625" y="24" x="86.6015625" class="er attributeBoxOdd"></rect><text transform="translate(91.6015625,35)" style="dominant-baseline: middle; font-size: 10.2px;" y="0" x="0" id="text-entity-Organisation-518a46ab-c0d9-51dd-a3f7-35b8cdca7211-attr-1-key" class="er entityLabel">PK</text><rect height="22" width="51.6328125" y="46" x="0" class="er attributeBoxEven"></rect><text transform="translate(5,57)" style="dominant-baseline: middle; font-size: 10.2px;" y="0" x="0" id="text-entity-Organisation-518a46ab-c0d9-51dd-a3f7-35b8cdca7211-attr-2-type" class="er entityLabel">string</text><rect height="22" width="34.96875" y="46" x="51.6328125" class="er attributeBoxEven"></rect><text transform="translate(56.6328125,57)" style="dominant-baseline: middle; font-size: 10.2px;" y="0" x="0" id="text-entity-Organisation-518a46ab-c0d9-51dd-a3f7-35b8cdca7211-attr-2-name" class="er entityLabel">name</text><rect height="22" width="21.5625" y="46" x="86.6015625" class="er attributeBoxEven"></rect><text transform="translate(91.6015625,57)" style="dominant-baseline: middle; font-size: 10.2px;" y="0" x="0" id="text-entity-Organisation-518a46ab-c0d9-51dd-a3f7-35b8cdca7211-attr-2-key" class="er entityLabel"></text><rect height="22" width="51.6328125" y="68" x="0" class="er attributeBoxOdd"></rect><text transform="translate(5,79)" style="dominant-baseline: middle; font-size: 10.2px;" y="0" x="0" id="text-entity-Organisation-518a46ab-c0d9-51dd-a3f7-35b8cdca7211-attr-3-type" class="er entityLabel">datetime</text><rect height="22" width="34.96875" y="68" x="51.6328125" class="er attributeBoxOdd"></rect><text transform="translate(56.6328125,79)" style="dominant-baseline: middle; font-size: 10.2px;" y="0" x="0" id="text-entity-Organisation-518a46ab-c0d9-51dd-a3f7-35b8cdca7211-attr-3-name" class="er entityLabel">since</text><rect height="22" width="21.5625" y="68" x="86.6015625" class="er attributeBoxOdd"></rect><text transform="translate(91.6015625,79)" style="dominant-baseline: middle; font-size: 10.2px;" y="0" x="0" id="text-entity-Organisation-518a46ab-c0d9-51dd-a3f7-35b8cdca7211-attr-3-key" class="er entityLabel"></text></g><g transform="translate(760.58984375,488 )" id="entity-Role-8dbdbbc4-0419-5464-aae6-f142fb2ece67"><rect height="90" width="100" y="0" x="0" class="er entityBox"></rect><text transform="translate(50,12)" style="dominant-baseline: middle; text-anchor: middle; font-size: 12px;" y="0" x="0" id="text-entity-Role-8dbdbbc4-0419-5464-aae6-f142fb2ece67" class="er entityLabel">Role</text><rect height="22" width="38.317708333333336" y="24" x="0" class="er attributeBoxOdd"></rect><text transform="translate(5,35)" style="dominant-baseline: middle; font-size: 10.2px;" y="0" x="0" id="text-entity-Role-8dbdbbc4-0419-5464-aae6-f142fb2ece67-attr-1-type" class="er entityLabel">int</text><rect height="22" width="37.544270833333336" y="24" x="38.317708333333336" class="er attributeBoxOdd"></rect><text transform="translate(43.317708333333336,35)" style="dominant-baseline: middle; font-size: 10.2px;" y="0" x="0" id="text-entity-Role-8dbdbbc4-0419-5464-aae6-f142fb2ece67-attr-1-name" class="er entityLabel">id</text><rect height="22" width="24.138020833333332" y="24" x="75.86197916666667" class="er attributeBoxOdd"></rect><text transform="translate(80.86197916666667,35)" style="dominant-baseline: middle; font-size: 10.2px;" y="0" x="0" id="text-entity-Role-8dbdbbc4-0419-5464-aae6-f142fb2ece67-attr-1-key" class="er entityLabel">PK</text><rect height="22" width="38.317708333333336" y="46" x="0" class="er attributeBoxEven"></rect><text transform="translate(5,57)" style="dominant-baseline: middle; font-size: 10.2px;" y="0" x="0" id="text-entity-Role-8dbdbbc4-0419-5464-aae6-f142fb2ece67-attr-2-type" class="er entityLabel">string</text><rect height="22" width="37.544270833333336" y="46" x="38.317708333333336" class="er attributeBoxEven"></rect><text transform="translate(43.317708333333336,57)" style="dominant-baseline: middle; font-size: 10.2px;" y="0" x="0" id="text-entity-Role-8dbdbbc4-0419-5464-aae6-f142fb2ece67-attr-2-name" class="er entityLabel">name</text><rect height="22" width="24.138020833333332" y="46" x="75.86197916666667" class="er attributeBoxEven"></rect><text transform="translate(80.86197916666667,57)" style="dominant-baseline: middle; font-size: 10.2px;" y="0" x="0" id="text-entity-Role-8dbdbbc4-0419-5464-aae6-f142fb2ece67-attr-2-key" class="er entityLabel"></text><rect height="22" width="38.317708333333336" y="68" x="0" class="er attributeBoxOdd"></rect><text transform="translate(5,79)" style="dominant-baseline: middle; font-size: 10.2px;" y="0" x="0" id="text-entity-Role-8dbdbbc4-0419-5464-aae6-f142fb2ece67-attr-3-type" class="er entityLabel">int</text><rect height="22" width="37.544270833333336" y="68" x="38.317708333333336" class="er attributeBoxOdd"></rect><text transform="translate(43.317708333333336,79)" style="dominant-baseline: middle; font-size: 10.2px;" y="0" x="0" id="text-entity-Role-8dbdbbc4-0419-5464-aae6-f142fb2ece67-attr-3-name" class="er entityLabel">level</text><rect height="22" width="24.138020833333332" y="68" x="75.86197916666667" class="er attributeBoxOdd"></rect><text transform="translate(80.86197916666667,79)" style="dominant-baseline: middle; font-size: 10.2px;" y="0" x="0" id="text-entity-Role-8dbdbbc4-0419-5464-aae6-f142fb2ece67-attr-3-key" class="er entityLabel"></text></g><g transform="translate(257.1328125,243 )" id="entity-Calendar-7c7b4ec3-a98f-5189-b1d0-828eb2c5091c"><rect height="90" width="123.921875" y="0" x="0" class="er entityBox"></rect><text transform="translate(61.9609375,12)" style="dominant-baseline: middle; text-anchor: middle; font-size: 12px;" y="0" x="0" id="text-entity-Calendar-7c7b4ec3-a98f-5189-b1d0-828eb2c5091c" class="er entityLabel">Calendar</text><rect height="22" width="22.53125" y="24" x="0" class="er attributeBoxOdd"></rect><text transform="translate(5,35)" style="dominant-baseline: middle; font-size: 10.2px;" y="0" x="0" id="text-entity-Calendar-7c7b4ec3-a98f-5189-b1d0-828eb2c5091c-attr-1-type" class="er entityLabel">int</text><rect height="22" width="79.828125" y="24" x="22.53125" class="er attributeBoxOdd"></rect><text transform="translate(27.53125,35)" style="dominant-baseline: middle; font-size: 10.2px;" y="0" x="0" id="text-entity-Calendar-7c7b4ec3-a98f-5189-b1d0-828eb2c5091c-attr-1-name" class="er entityLabel">id</text><rect height="22" width="21.5625" y="24" x="102.359375" class="er attributeBoxOdd"></rect><text transform="translate(107.359375,35)" style="dominant-baseline: middle; font-size: 10.2px;" y="0" x="0" id="text-entity-Calendar-7c7b4ec3-a98f-5189-b1d0-828eb2c5091c-attr-1-key" class="er entityLabel">PK</text><rect height="22" width="22.53125" y="46" x="0" class="er attributeBoxEven"></rect><text transform="translate(5,57)" style="dominant-baseline: middle; font-size: 10.2px;" y="0" x="0" id="text-entity-Calendar-7c7b4ec3-a98f-5189-b1d0-828eb2c5091c-attr-2-type" class="er entityLabel">int</text><rect height="22" width="79.828125" y="46" x="22.53125" class="er attributeBoxEven"></rect><text transform="translate(27.53125,57)" style="dominant-baseline: middle; font-size: 10.2px;" y="0" x="0" id="text-entity-Calendar-7c7b4ec3-a98f-5189-b1d0-828eb2c5091c-attr-2-name" class="er entityLabel">organisation_id</text><rect height="22" width="21.5625" y="46" x="102.359375" class="er attributeBoxEven"></rect><text transform="translate(107.359375,57)" style="dominant-baseline: middle; font-size: 10.2px;" y="0" x="0" id="text-entity-Calendar-7c7b4ec3-a98f-5189-b1d0-828eb2c5091c-attr-2-key" class="er entityLabel">FK</text><rect height="22" width="22.53125" y="68" x="0" class="er attributeBoxOdd"></rect><text transform="translate(5,79)" style="dominant-baseline: middle; font-size: 10.2px;" y="0" x="0" id="text-entity-Calendar-7c7b4ec3-a98f-5189-b1d0-828eb2c5091c-attr-3-type" class="er entityLabel">int</text><rect height="22" width="79.828125" y="68" x="22.53125" class="er attributeBoxOdd"></rect><text transform="translate(27.53125,79)" style="dominant-baseline: middle; font-size: 10.2px;" y="0" x="0" id="text-entity-Calendar-7c7b4ec3-a98f-5189-b1d0-828eb2c5091c-attr-3-name" class="er entityLabel">user_id</text><rect height="22" width="21.5625" y="68" x="102.359375" class="er attributeBoxOdd"></rect><text transform="translate(107.359375,79)" style="dominant-baseline: middle; font-size: 10.2px;" y="0" x="0" id="text-entity-Calendar-7c7b4ec3-a98f-5189-b1d0-828eb2c5091c-attr-3-key" class="er entityLabel">FK</text></g><g transform="translate(20,221 )" id="entity-Song-d80e2154-507c-53bb-a634-0c930e739395"><rect height="134" width="137.1328125" y="0" x="0" class="er entityBox"></rect><text transform="translate(68.56640625,12)" style="dominant-baseline: middle; text-anchor: middle; font-size: 12px;" y="0" x="0" id="text-entity-Song-d80e2154-507c-53bb-a634-0c930e739395" class="er entityLabel">Song</text><rect height="22" width="35.7421875" y="24" x="0" class="er attributeBoxOdd"></rect><text transform="translate(5,35)" style="dominant-baseline: middle; font-size: 10.2px;" y="0" x="0" id="text-entity-Song-d80e2154-507c-53bb-a634-0c930e739395-attr-1-type" class="er entityLabel">int</text><rect height="22" width="79.828125" y="24" x="35.7421875" class="er attributeBoxOdd"></rect><text transform="translate(40.7421875,35)" style="dominant-baseline: middle; font-size: 10.2px;" y="0" x="0" id="text-entity-Song-d80e2154-507c-53bb-a634-0c930e739395-attr-1-name" class="er entityLabel">id</text><rect height="22" width="21.5625" y="24" x="115.5703125" class="er attributeBoxOdd"></rect><text transform="translate(120.5703125,35)" style="dominant-baseline: middle; font-size: 10.2px;" y="0" x="0" id="text-entity-Song-d80e2154-507c-53bb-a634-0c930e739395-attr-1-key" class="er entityLabel">PK</text><rect height="22" width="35.7421875" y="46" x="0" class="er attributeBoxEven"></rect><text transform="translate(5,57)" style="dominant-baseline: middle; font-size: 10.2px;" y="0" x="0" id="text-entity-Song-d80e2154-507c-53bb-a634-0c930e739395-attr-2-type" class="er entityLabel">int</text><rect height="22" width="79.828125" y="46" x="35.7421875" class="er attributeBoxEven"></rect><text transform="translate(40.7421875,57)" style="dominant-baseline: middle; font-size: 10.2px;" y="0" x="0" id="text-entity-Song-d80e2154-507c-53bb-a634-0c930e739395-attr-2-name" class="er entityLabel">nr</text><rect height="22" width="21.5625" y="46" x="115.5703125" class="er attributeBoxEven"></rect><text transform="translate(120.5703125,57)" style="dominant-baseline: middle; font-size: 10.2px;" y="0" x="0" id="text-entity-Song-d80e2154-507c-53bb-a634-0c930e739395-attr-2-key" class="er entityLabel"></text><rect height="22" width="35.7421875" y="68" x="0" class="er attributeBoxOdd"></rect><text transform="translate(5,79)" style="dominant-baseline: middle; font-size: 10.2px;" y="0" x="0" id="text-entity-Song-d80e2154-507c-53bb-a634-0c930e739395-attr-3-type" class="er entityLabel">string</text><rect height="22" width="79.828125" y="68" x="35.7421875" class="er attributeBoxOdd"></rect><text transform="translate(40.7421875,79)" style="dominant-baseline: middle; font-size: 10.2px;" y="0" x="0" id="text-entity-Song-d80e2154-507c-53bb-a634-0c930e739395-attr-3-name" class="er entityLabel">name</text><rect height="22" width="21.5625" y="68" x="115.5703125" class="er attributeBoxOdd"></rect><text transform="translate(120.5703125,79)" style="dominant-baseline: middle; font-size: 10.2px;" y="0" x="0" id="text-entity-Song-d80e2154-507c-53bb-a634-0c930e739395-attr-3-key" class="er entityLabel"></text><rect height="22" width="35.7421875" y="90" x="0" class="er attributeBoxEven"></rect><text transform="translate(5,101)" style="dominant-baseline: middle; font-size: 10.2px;" y="0" x="0" id="text-entity-Song-d80e2154-507c-53bb-a634-0c930e739395-attr-4-type" class="er entityLabel">text</text><rect height="22" width="79.828125" y="90" x="35.7421875" class="er attributeBoxEven"></rect><text transform="translate(40.7421875,101)" style="dominant-baseline: middle; font-size: 10.2px;" y="0" x="0" id="text-entity-Song-d80e2154-507c-53bb-a634-0c930e739395-attr-4-name" class="er entityLabel">description</text><rect height="22" width="21.5625" y="90" x="115.5703125" class="er attributeBoxEven"></rect><text transform="translate(120.5703125,101)" style="dominant-baseline: middle; font-size: 10.2px;" y="0" x="0" id="text-entity-Song-d80e2154-507c-53bb-a634-0c930e739395-attr-4-key" class="er entityLabel"></text><rect height="22" width="35.7421875" y="112" x="0" class="er attributeBoxOdd"></rect><text transform="translate(5,123)" style="dominant-baseline: middle; font-size: 10.2px;" y="0" x="0" id="text-entity-Song-d80e2154-507c-53bb-a634-0c930e739395-attr-5-type" class="er entityLabel">int</text><rect height="22" width="79.828125" y="112" x="35.7421875" class="er attributeBoxOdd"></rect><text transform="translate(40.7421875,123)" style="dominant-baseline: middle; font-size: 10.2px;" y="0" x="0" id="text-entity-Song-d80e2154-507c-53bb-a634-0c930e739395-attr-5-name" class="er entityLabel">organisation_id</text><rect height="22" width="21.5625" y="112" x="115.5703125" class="er attributeBoxOdd"></rect><text transform="translate(120.5703125,123)" style="dominant-baseline: middle; font-size: 10.2px;" y="0" x="0" id="text-entity-Song-d80e2154-507c-53bb-a634-0c930e739395-attr-5-key" class="er entityLabel">FK</text></g><g transform="translate(734.078125,221 )" id="entity-Chat-28de1b5f-1ec4-5e23-9075-f668c8ae6d11"><rect height="134" width="153.0234375" y="0" x="0" class="er entityBox"></rect><text transform="translate(76.51171875,12)" style="dominant-baseline: middle; text-anchor: middle; font-size: 12px;" y="0" x="0" id="text-entity-Chat-28de1b5f-1ec4-5e23-9075-f668c8ae6d11" class="er entityLabel">Chat</text><rect height="22" width="51.6328125" y="24" x="0" class="er attributeBoxOdd"></rect><text transform="translate(5,35)" style="dominant-baseline: middle; font-size: 10.2px;" y="0" x="0" id="text-entity-Chat-28de1b5f-1ec4-5e23-9075-f668c8ae6d11-attr-1-type" class="er entityLabel">int</text><rect height="22" width="79.828125" y="24" x="51.6328125" class="er attributeBoxOdd"></rect><text transform="translate(56.6328125,35)" style="dominant-baseline: middle; font-size: 10.2px;" y="0" x="0" id="text-entity-Chat-28de1b5f-1ec4-5e23-9075-f668c8ae6d11-attr-1-name" class="er entityLabel">id</text><rect height="22" width="21.5625" y="24" x="131.4609375" class="er attributeBoxOdd"></rect><text transform="translate(136.4609375,35)" style="dominant-baseline: middle; font-size: 10.2px;" y="0" x="0" id="text-entity-Chat-28de1b5f-1ec4-5e23-9075-f668c8ae6d11-attr-1-key" class="er entityLabel">PK</text><rect height="22" width="51.6328125" y="46" x="0" class="er attributeBoxEven"></rect><text transform="translate(5,57)" style="dominant-baseline: middle; font-size: 10.2px;" y="0" x="0" id="text-entity-Chat-28de1b5f-1ec4-5e23-9075-f668c8ae6d11-attr-2-type" class="er entityLabel">int</text><rect height="22" width="79.828125" y="46" x="51.6328125" class="er attributeBoxEven"></rect><text transform="translate(56.6328125,57)" style="dominant-baseline: middle; font-size: 10.2px;" y="0" x="0" id="text-entity-Chat-28de1b5f-1ec4-5e23-9075-f668c8ae6d11-attr-2-name" class="er entityLabel">organisation_id</text><rect height="22" width="21.5625" y="46" x="131.4609375" class="er attributeBoxEven"></rect><text transform="translate(136.4609375,57)" style="dominant-baseline: middle; font-size: 10.2px;" y="0" x="0" id="text-entity-Chat-28de1b5f-1ec4-5e23-9075-f668c8ae6d11-attr-2-key" class="er entityLabel">FK</text><rect height="22" width="51.6328125" y="68" x="0" class="er attributeBoxOdd"></rect><text transform="translate(5,79)" style="dominant-baseline: middle; font-size: 10.2px;" y="0" x="0" id="text-entity-Chat-28de1b5f-1ec4-5e23-9075-f668c8ae6d11-attr-3-type" class="er entityLabel">string</text><rect height="22" width="79.828125" y="68" x="51.6328125" class="er attributeBoxOdd"></rect><text transform="translate(56.6328125,79)" style="dominant-baseline: middle; font-size: 10.2px;" y="0" x="0" id="text-entity-Chat-28de1b5f-1ec4-5e23-9075-f668c8ae6d11-attr-3-name" class="er entityLabel">name</text><rect height="22" width="21.5625" y="68" x="131.4609375" class="er attributeBoxOdd"></rect><text transform="translate(136.4609375,79)" style="dominant-baseline: middle; font-size: 10.2px;" y="0" x="0" id="text-entity-Chat-28de1b5f-1ec4-5e23-9075-f668c8ae6d11-attr-3-key" class="er entityLabel"></text><rect height="22" width="51.6328125" y="90" x="0" class="er attributeBoxEven"></rect><text transform="translate(5,101)" style="dominant-baseline: middle; font-size: 10.2px;" y="0" x="0" id="text-entity-Chat-28de1b5f-1ec4-5e23-9075-f668c8ae6d11-attr-4-type" class="er entityLabel">datetime</text><rect height="22" width="79.828125" y="90" x="51.6328125" class="er attributeBoxEven"></rect><text transform="translate(56.6328125,101)" style="dominant-baseline: middle; font-size: 10.2px;" y="0" x="0" id="text-entity-Chat-28de1b5f-1ec4-5e23-9075-f668c8ae6d11-attr-4-name" class="er entityLabel">created</text><rect height="22" width="21.5625" y="90" x="131.4609375" class="er attributeBoxEven"></rect><text transform="translate(136.4609375,101)" style="dominant-baseline: middle; font-size: 10.2px;" y="0" x="0" id="text-entity-Chat-28de1b5f-1ec4-5e23-9075-f668c8ae6d11-attr-4-key" class="er entityLabel"></text><rect height="22" width="51.6328125" y="112" x="0" class="er attributeBoxOdd"></rect><text transform="translate(5,123)" style="dominant-baseline: middle; font-size: 10.2px;" y="0" x="0" id="text-entity-Chat-28de1b5f-1ec4-5e23-9075-f668c8ae6d11-attr-5-type" class="er entityLabel">int</text><rect height="22" width="79.828125" y="112" x="51.6328125" class="er attributeBoxOdd"></rect><text transform="translate(56.6328125,123)" style="dominant-baseline: middle; font-size: 10.2px;" y="0" x="0" id="text-entity-Chat-28de1b5f-1ec4-5e23-9075-f668c8ae6d11-attr-5-name" class="er entityLabel">min_role_level</text><rect height="22" width="21.5625" y="112" x="131.4609375" class="er attributeBoxOdd"></rect><text transform="translate(136.4609375,123)" style="dominant-baseline: middle; font-size: 10.2px;" y="0" x="0" id="text-entity-Chat-28de1b5f-1ec4-5e23-9075-f668c8ae6d11-attr-5-key" class="er entityLabel"></text></g><g transform="translate(481.0546875,210 )" id="entity-Project-c2395ed5-a5fa-58df-9cbe-a2926add311c"><rect height="156" width="153.0234375" y="0" x="0" class="er entityBox"></rect><text transform="translate(76.51171875,12)" style="dominant-baseline: middle; text-anchor: middle; font-size: 12px;" y="0" x="0" id="text-entity-Project-c2395ed5-a5fa-58df-9cbe-a2926add311c" class="er entityLabel">Project</text><rect height="22" width="51.6328125" y="24" x="0" class="er attributeBoxOdd"></rect><text transform="translate(5,35)" style="dominant-baseline: middle; font-size: 10.2px;" y="0" x="0" id="text-entity-Project-c2395ed5-a5fa-58df-9cbe-a2926add311c-attr-1-type" class="er entityLabel">int</text><rect height="22" width="79.828125" y="24" x="51.6328125" class="er attributeBoxOdd"></rect><text transform="translate(56.6328125,35)" style="dominant-baseline: middle; font-size: 10.2px;" y="0" x="0" id="text-entity-Project-c2395ed5-a5fa-58df-9cbe-a2926add311c-attr-1-name" class="er entityLabel">id</text><rect height="22" width="21.5625" y="24" x="131.4609375" class="er attributeBoxOdd"></rect><text transform="translate(136.4609375,35)" style="dominant-baseline: middle; font-size: 10.2px;" y="0" x="0" id="text-entity-Project-c2395ed5-a5fa-58df-9cbe-a2926add311c-attr-1-key" class="er entityLabel">PK</text><rect height="22" width="51.6328125" y="46" x="0" class="er attributeBoxEven"></rect><text transform="translate(5,57)" style="dominant-baseline: middle; font-size: 10.2px;" y="0" x="0" id="text-entity-Project-c2395ed5-a5fa-58df-9cbe-a2926add311c-attr-2-type" class="er entityLabel">string</text><rect height="22" width="79.828125" y="46" x="51.6328125" class="er attributeBoxEven"></rect><text transform="translate(56.6328125,57)" style="dominant-baseline: middle; font-size: 10.2px;" y="0" x="0" id="text-entity-Project-c2395ed5-a5fa-58df-9cbe-a2926add311c-attr-2-name" class="er entityLabel">name</text><rect height="22" width="21.5625" y="46" x="131.4609375" class="er attributeBoxEven"></rect><text transform="translate(136.4609375,57)" style="dominant-baseline: middle; font-size: 10.2px;" y="0" x="0" id="text-entity-Project-c2395ed5-a5fa-58df-9cbe-a2926add311c-attr-2-key" class="er entityLabel"></text><rect height="22" width="51.6328125" y="68" x="0" class="er attributeBoxOdd"></rect><text transform="translate(5,79)" style="dominant-baseline: middle; font-size: 10.2px;" y="0" x="0" id="text-entity-Project-c2395ed5-a5fa-58df-9cbe-a2926add311c-attr-3-type" class="er entityLabel">int</text><rect height="22" width="79.828125" y="68" x="51.6328125" class="er attributeBoxOdd"></rect><text transform="translate(56.6328125,79)" style="dominant-baseline: middle; font-size: 10.2px;" y="0" x="0" id="text-entity-Project-c2395ed5-a5fa-58df-9cbe-a2926add311c-attr-3-name" class="er entityLabel">organisation_id</text><rect height="22" width="21.5625" y="68" x="131.4609375" class="er attributeBoxOdd"></rect><text transform="translate(136.4609375,79)" style="dominant-baseline: middle; font-size: 10.2px;" y="0" x="0" id="text-entity-Project-c2395ed5-a5fa-58df-9cbe-a2926add311c-attr-3-key" class="er entityLabel">FK</text><rect height="22" width="51.6328125" y="90" x="0" class="er attributeBoxEven"></rect><text transform="translate(5,101)" style="dominant-baseline: middle; font-size: 10.2px;" y="0" x="0" id="text-entity-Project-c2395ed5-a5fa-58df-9cbe-a2926add311c-attr-4-type" class="er entityLabel">int</text><rect height="22" width="79.828125" y="90" x="51.6328125" class="er attributeBoxEven"></rect><text transform="translate(56.6328125,101)" style="dominant-baseline: middle; font-size: 10.2px;" y="0" x="0" id="text-entity-Project-c2395ed5-a5fa-58df-9cbe-a2926add311c-attr-4-name" class="er entityLabel">status_id</text><rect height="22" width="21.5625" y="90" x="131.4609375" class="er attributeBoxEven"></rect><text transform="translate(136.4609375,101)" style="dominant-baseline: middle; font-size: 10.2px;" y="0" x="0" id="text-entity-Project-c2395ed5-a5fa-58df-9cbe-a2926add311c-attr-4-key" class="er entityLabel">FK</text><rect height="22" width="51.6328125" y="112" x="0" class="er attributeBoxOdd"></rect><text transform="translate(5,123)" style="dominant-baseline: middle; font-size: 10.2px;" y="0" x="0" id="text-entity-Project-c2395ed5-a5fa-58df-9cbe-a2926add311c-attr-5-type" class="er entityLabel">datetime</text><rect height="22" width="79.828125" y="112" x="51.6328125" class="er attributeBoxOdd"></rect><text transform="translate(56.6328125,123)" style="dominant-baseline: middle; font-size: 10.2px;" y="0" x="0" id="text-entity-Project-c2395ed5-a5fa-58df-9cbe-a2926add311c-attr-5-name" class="er entityLabel">deadline</text><rect height="22" width="21.5625" y="112" x="131.4609375" class="er attributeBoxOdd"></rect><text transform="translate(136.4609375,123)" style="dominant-baseline: middle; font-size: 10.2px;" y="0" x="0" id="text-entity-Project-c2395ed5-a5fa-58df-9cbe-a2926add311c-attr-5-key" class="er entityLabel"></text><rect height="22" width="51.6328125" y="134" x="0" class="er attributeBoxEven"></rect><text transform="translate(5,145)" style="dominant-baseline: middle; font-size: 10.2px;" y="0" x="0" id="text-entity-Project-c2395ed5-a5fa-58df-9cbe-a2926add311c-attr-6-type" class="er entityLabel">int</text><rect height="22" width="79.828125" y="134" x="51.6328125" class="er attributeBoxEven"></rect><text transform="translate(56.6328125,145)" style="dominant-baseline: middle; font-size: 10.2px;" y="0" x="0" id="text-entity-Project-c2395ed5-a5fa-58df-9cbe-a2926add311c-attr-6-name" class="er entityLabel">priority</text><rect height="22" width="21.5625" y="134" x="131.4609375" class="er attributeBoxEven"></rect><text transform="translate(136.4609375,145)" style="dominant-baseline: middle; font-size: 10.2px;" y="0" x="0" id="text-entity-Project-c2395ed5-a5fa-58df-9cbe-a2926add311c-attr-6-key" class="er entityLabel"></text></g><g transform="translate(288.318359375,700 )" id="entity-OrganisationInvitation-b63f2a73-dedc-52db-ab6d-8a19e568598a"><rect height="244" width="153.953125" y="0" x="0" class="er entityBox"></rect><text transform="translate(76.9765625,12)" style="dominant-baseline: middle; text-anchor: middle; font-size: 12px;" y="0" x="0" id="text-entity-OrganisationInvitation-b63f2a73-dedc-52db-ab6d-8a19e568598a" class="er entityLabel">OrganisationInvitation</text><rect height="22" width="51.6328125" y="24" x="0" class="er attributeBoxOdd"></rect><text transform="translate(5,35)" style="dominant-baseline: middle; font-size: 10.2px;" y="0" x="0" id="text-entity-OrganisationInvitation-b63f2a73-dedc-52db-ab6d-8a19e568598a-attr-1-type" class="er entityLabel">int</text><rect height="22" width="79.828125" y="24" x="51.6328125" class="er attributeBoxOdd"></rect><text transform="translate(56.6328125,35)" style="dominant-baseline: middle; font-size: 10.2px;" y="0" x="0" id="text-entity-OrganisationInvitation-b63f2a73-dedc-52db-ab6d-8a19e568598a-attr-1-name" class="er entityLabel">id</text><rect height="22" width="22.4921875" y="24" x="131.4609375" class="er attributeBoxOdd"></rect><text transform="translate(136.4609375,35)" style="dominant-baseline: middle; font-size: 10.2px;" y="0" x="0" id="text-entity-OrganisationInvitation-b63f2a73-dedc-52db-ab6d-8a19e568598a-attr-1-key" class="er entityLabel">PK</text><rect height="22" width="51.6328125" y="46" x="0" class="er attributeBoxEven"></rect><text transform="translate(5,57)" style="dominant-baseline: middle; font-size: 10.2px;" y="0" x="0" id="text-entity-OrganisationInvitation-b63f2a73-dedc-52db-ab6d-8a19e568598a-attr-2-type" class="er entityLabel">int</text><rect height="22" width="79.828125" y="46" x="51.6328125" class="er attributeBoxEven"></rect><text transform="translate(56.6328125,57)" style="dominant-baseline: middle; font-size: 10.2px;" y="0" x="0" id="text-entity-OrganisationInvitation-b63f2a73-dedc-52db-ab6d-8a19e568598a-attr-2-name" class="er entityLabel">organisation_id</text><rect height="22" width="22.4921875" y="46" x="131.4609375" class="er attributeBoxEven"></rect><text transform="translate(136.4609375,57)" style="dominant-baseline: middle; font-size: 10.2px;" y="0" x="0" id="text-entity-OrganisationInvitation-b63f2a73-dedc-52db-ab6d-8a19e568598a-attr-2-key" class="er entityLabel">FK</text><rect height="22" width="51.6328125" y="68" x="0" class="er attributeBoxOdd"></rect><text transform="translate(5,79)" style="dominant-baseline: middle; font-size: 10.2px;" y="0" x="0" id="text-entity-OrganisationInvitation-b63f2a73-dedc-52db-ab6d-8a19e568598a-attr-3-type" class="er entityLabel">int</text><rect height="22" width="79.828125" y="68" x="51.6328125" class="er attributeBoxOdd"></rect><text transform="translate(56.6328125,79)" style="dominant-baseline: middle; font-size: 10.2px;" y="0" x="0" id="text-entity-OrganisationInvitation-b63f2a73-dedc-52db-ab6d-8a19e568598a-attr-3-name" class="er entityLabel">invited_by_id</text><rect height="22" width="22.4921875" y="68" x="131.4609375" class="er attributeBoxOdd"></rect><text transform="translate(136.4609375,79)" style="dominant-baseline: middle; font-size: 10.2px;" y="0" x="0" id="text-entity-OrganisationInvitation-b63f2a73-dedc-52db-ab6d-8a19e568598a-attr-3-key" class="er entityLabel">FK</text><rect height="22" width="51.6328125" y="90" x="0" class="er attributeBoxEven"></rect><text transform="translate(5,101)" style="dominant-baseline: middle; font-size: 10.2px;" y="0" x="0" id="text-entity-OrganisationInvitation-b63f2a73-dedc-52db-ab6d-8a19e568598a-attr-4-type" class="er entityLabel">string</text><rect height="22" width="79.828125" y="90" x="51.6328125" class="er attributeBoxEven"></rect><text transform="translate(56.6328125,101)" style="dominant-baseline: middle; font-size: 10.2px;" y="0" x="0" id="text-entity-OrganisationInvitation-b63f2a73-dedc-52db-ab6d-8a19e568598a-attr-4-name" class="er entityLabel">invite_code</text><rect height="22" width="22.4921875" y="90" x="131.4609375" class="er attributeBoxEven"></rect><text transform="translate(136.4609375,101)" style="dominant-baseline: middle; font-size: 10.2px;" y="0" x="0" id="text-entity-OrganisationInvitation-b63f2a73-dedc-52db-ab6d-8a19e568598a-attr-4-key" class="er entityLabel"></text><rect height="22" width="51.6328125" y="112" x="0" class="er attributeBoxOdd"></rect><text transform="translate(5,123)" style="dominant-baseline: middle; font-size: 10.2px;" y="0" x="0" id="text-entity-OrganisationInvitation-b63f2a73-dedc-52db-ab6d-8a19e568598a-attr-5-type" class="er entityLabel">int</text><rect height="22" width="79.828125" y="112" x="51.6328125" class="er attributeBoxOdd"></rect><text transform="translate(56.6328125,123)" style="dominant-baseline: middle; font-size: 10.2px;" y="0" x="0" id="text-entity-OrganisationInvitation-b63f2a73-dedc-52db-ab6d-8a19e568598a-attr-5-name" class="er entityLabel">role_id</text><rect height="22" width="22.4921875" y="112" x="131.4609375" class="er attributeBoxOdd"></rect><text transform="translate(136.4609375,123)" style="dominant-baseline: middle; font-size: 10.2px;" y="0" x="0" id="text-entity-OrganisationInvitation-b63f2a73-dedc-52db-ab6d-8a19e568598a-attr-5-key" class="er entityLabel">FK</text><rect height="22" width="51.6328125" y="134" x="0" class="er attributeBoxEven"></rect><text transform="translate(5,145)" style="dominant-baseline: middle; font-size: 10.2px;" y="0" x="0" id="text-entity-OrganisationInvitation-b63f2a73-dedc-52db-ab6d-8a19e568598a-attr-6-type" class="er entityLabel">string</text><rect height="22" width="79.828125" y="134" x="51.6328125" class="er attributeBoxEven"></rect><text transform="translate(56.6328125,145)" style="dominant-baseline: middle; font-size: 10.2px;" y="0" x="0" id="text-entity-OrganisationInvitation-b63f2a73-dedc-52db-ab6d-8a19e568598a-attr-6-name" class="er entityLabel">token</text><rect height="22" width="22.4921875" y="134" x="131.4609375" class="er attributeBoxEven"></rect><text transform="translate(136.4609375,145)" style="dominant-baseline: middle; font-size: 10.2px;" y="0" x="0" id="text-entity-OrganisationInvitation-b63f2a73-dedc-52db-ab6d-8a19e568598a-attr-6-key" class="er entityLabel">UK</text><rect height="22" width="51.6328125" y="156" x="0" class="er attributeBoxOdd"></rect><text transform="translate(5,167)" style="dominant-baseline: middle; font-size: 10.2px;" y="0" x="0" id="text-entity-OrganisationInvitation-b63f2a73-dedc-52db-ab6d-8a19e568598a-attr-7-type" class="er entityLabel">datetime</text><rect height="22" width="79.828125" y="156" x="51.6328125" class="er attributeBoxOdd"></rect><text transform="translate(56.6328125,167)" style="dominant-baseline: middle; font-size: 10.2px;" y="0" x="0" id="text-entity-OrganisationInvitation-b63f2a73-dedc-52db-ab6d-8a19e568598a-attr-7-name" class="er entityLabel">created</text><rect height="22" width="22.4921875" y="156" x="131.4609375" class="er attributeBoxOdd"></rect><text transform="translate(136.4609375,167)" style="dominant-baseline: middle; font-size: 10.2px;" y="0" x="0" id="text-entity-OrganisationInvitation-b63f2a73-dedc-52db-ab6d-8a19e568598a-attr-7-key" class="er entityLabel"></text><rect height="22" width="51.6328125" y="178" x="0" class="er attributeBoxEven"></rect><text transform="translate(5,189)" style="dominant-baseline: middle; font-size: 10.2px;" y="0" x="0" id="text-entity-OrganisationInvitation-b63f2a73-dedc-52db-ab6d-8a19e568598a-attr-8-type" class="er entityLabel">datetime</text><rect height="22" width="79.828125" y="178" x="51.6328125" class="er attributeBoxEven"></rect><text transform="translate(56.6328125,189)" style="dominant-baseline: middle; font-size: 10.2px;" y="0" x="0" id="text-entity-OrganisationInvitation-b63f2a73-dedc-52db-ab6d-8a19e568598a-attr-8-name" class="er entityLabel">expires</text><rect height="22" width="22.4921875" y="178" x="131.4609375" class="er attributeBoxEven"></rect><text transform="translate(136.4609375,189)" style="dominant-baseline: middle; font-size: 10.2px;" y="0" x="0" id="text-entity-OrganisationInvitation-b63f2a73-dedc-52db-ab6d-8a19e568598a-attr-8-key" class="er entityLabel"></text><rect height="22" width="51.6328125" y="200" x="0" class="er attributeBoxOdd"></rect><text transform="translate(5,211)" style="dominant-baseline: middle; font-size: 10.2px;" y="0" x="0" id="text-entity-OrganisationInvitation-b63f2a73-dedc-52db-ab6d-8a19e568598a-attr-9-type" class="er entityLabel">boolean</text><rect height="22" width="79.828125" y="200" x="51.6328125" class="er attributeBoxOdd"></rect><text transform="translate(56.6328125,211)" style="dominant-baseline: middle; font-size: 10.2px;" y="0" x="0" id="text-entity-OrganisationInvitation-b63f2a73-dedc-52db-ab6d-8a19e568598a-attr-9-name" class="er entityLabel">accepted</text><rect height="22" width="22.4921875" y="200" x="131.4609375" class="er attributeBoxOdd"></rect><text transform="translate(136.4609375,211)" style="dominant-baseline: middle; font-size: 10.2px;" y="0" x="0" id="text-entity-OrganisationInvitation-b63f2a73-dedc-52db-ab6d-8a19e568598a-attr-9-key" class="er entityLabel"></text><rect height="22" width="51.6328125" y="222" x="0" class="er attributeBoxEven"></rect><text transform="translate(5,233)" style="dominant-baseline: middle; font-size: 10.2px;" y="0" x="0" id="text-entity-OrganisationInvitation-b63f2a73-dedc-52db-ab6d-8a19e568598a-attr-10-type" class="er entityLabel">boolean</text><rect height="22" width="79.828125" y="222" x="51.6328125" class="er attributeBoxEven"></rect><text transform="translate(56.6328125,233)" style="dominant-baseline: middle; font-size: 10.2px;" y="0" x="0" id="text-entity-OrganisationInvitation-b63f2a73-dedc-52db-ab6d-8a19e568598a-attr-10-name" class="er entityLabel">declined</text><rect height="22" width="22.4921875" y="222" x="131.4609375" class="er attributeBoxEven"></rect><text transform="translate(136.4609375,233)" style="dominant-baseline: middle; font-size: 10.2px;" y="0" x="0" id="text-entity-OrganisationInvitation-b63f2a73-dedc-52db-ab6d-8a19e568598a-attr-10-key" class="er entityLabel"></text></g><g transform="translate(250.7421875,466 )" id="entity-Event-5fcfcec5-0af7-59ba-bebb-bb0a822c8afa"><rect height="134" width="136.703125" y="0" x="0" class="er entityBox"></rect><text transform="translate(68.3515625,12)" style="dominant-baseline: middle; text-anchor: middle; font-size: 12px;" y="0" x="0" id="text-entity-Event-5fcfcec5-0af7-59ba-bebb-bb0a822c8afa" class="er entityLabel">Event</text><rect height="22" width="51.6328125" y="24" x="0" class="er attributeBoxOdd"></rect><text transform="translate(5,35)" style="dominant-baseline: middle; font-size: 10.2px;" y="0" x="0" id="text-entity-Event-5fcfcec5-0af7-59ba-bebb-bb0a822c8afa-attr-1-type" class="er entityLabel">int</text><rect height="22" width="63.5078125" y="24" x="51.6328125" class="er attributeBoxOdd"></rect><text transform="translate(56.6328125,35)" style="dominant-baseline: middle; font-size: 10.2px;" y="0" x="0" id="text-entity-Event-5fcfcec5-0af7-59ba-bebb-bb0a822c8afa-attr-1-name" class="er entityLabel">id</text><rect height="22" width="21.5625" y="24" x="115.140625" class="er attributeBoxOdd"></rect><text transform="translate(120.140625,35)" style="dominant-baseline: middle; font-size: 10.2px;" y="0" x="0" id="text-entity-Event-5fcfcec5-0af7-59ba-bebb-bb0a822c8afa-attr-1-key" class="er entityLabel">PK</text><rect height="22" width="51.6328125" y="46" x="0" class="er attributeBoxEven"></rect><text transform="translate(5,57)" style="dominant-baseline: middle; font-size: 10.2px;" y="0" x="0" id="text-entity-Event-5fcfcec5-0af7-59ba-bebb-bb0a822c8afa-attr-2-type" class="er entityLabel">int</text><rect height="22" width="63.5078125" y="46" x="51.6328125" class="er attributeBoxEven"></rect><text transform="translate(56.6328125,57)" style="dominant-baseline: middle; font-size: 10.2px;" y="0" x="0" id="text-entity-Event-5fcfcec5-0af7-59ba-bebb-bb0a822c8afa-attr-2-name" class="er entityLabel">calendar_id</text><rect height="22" width="21.5625" y="46" x="115.140625" class="er attributeBoxEven"></rect><text transform="translate(120.140625,57)" style="dominant-baseline: middle; font-size: 10.2px;" y="0" x="0" id="text-entity-Event-5fcfcec5-0af7-59ba-bebb-bb0a822c8afa-attr-2-key" class="er entityLabel">FK</text><rect height="22" width="51.6328125" y="68" x="0" class="er attributeBoxOdd"></rect><text transform="translate(5,79)" style="dominant-baseline: middle; font-size: 10.2px;" y="0" x="0" id="text-entity-Event-5fcfcec5-0af7-59ba-bebb-bb0a822c8afa-attr-3-type" class="er entityLabel">datetime</text><rect height="22" width="63.5078125" y="68" x="51.6328125" class="er attributeBoxOdd"></rect><text transform="translate(56.6328125,79)" style="dominant-baseline: middle; font-size: 10.2px;" y="0" x="0" id="text-entity-Event-5fcfcec5-0af7-59ba-bebb-bb0a822c8afa-attr-3-name" class="er entityLabel">start</text><rect height="22" width="21.5625" y="68" x="115.140625" class="er attributeBoxOdd"></rect><text transform="translate(120.140625,79)" style="dominant-baseline: middle; font-size: 10.2px;" y="0" x="0" id="text-entity-Event-5fcfcec5-0af7-59ba-bebb-bb0a822c8afa-attr-3-key" class="er entityLabel"></text><rect height="22" width="51.6328125" y="90" x="0" class="er attributeBoxEven"></rect><text transform="translate(5,101)" style="dominant-baseline: middle; font-size: 10.2px;" y="0" x="0" id="text-entity-Event-5fcfcec5-0af7-59ba-bebb-bb0a822c8afa-attr-4-type" class="er entityLabel">datetime</text><rect height="22" width="63.5078125" y="90" x="51.6328125" class="er attributeBoxEven"></rect><text transform="translate(56.6328125,101)" style="dominant-baseline: middle; font-size: 10.2px;" y="0" x="0" id="text-entity-Event-5fcfcec5-0af7-59ba-bebb-bb0a822c8afa-attr-4-name" class="er entityLabel">end</text><rect height="22" width="21.5625" y="90" x="115.140625" class="er attributeBoxEven"></rect><text transform="translate(120.140625,101)" style="dominant-baseline: middle; font-size: 10.2px;" y="0" x="0" id="text-entity-Event-5fcfcec5-0af7-59ba-bebb-bb0a822c8afa-attr-4-key" class="er entityLabel"></text><rect height="22" width="51.6328125" y="112" x="0" class="er attributeBoxOdd"></rect><text transform="translate(5,123)" style="dominant-baseline: middle; font-size: 10.2px;" y="0" x="0" id="text-entity-Event-5fcfcec5-0af7-59ba-bebb-bb0a822c8afa-attr-5-type" class="er entityLabel">boolean</text><rect height="22" width="63.5078125" y="112" x="51.6328125" class="er attributeBoxOdd"></rect><text transform="translate(56.6328125,123)" style="dominant-baseline: middle; font-size: 10.2px;" y="0" x="0" id="text-entity-Event-5fcfcec5-0af7-59ba-bebb-bb0a822c8afa-attr-5-name" class="er entityLabel">is_gig</text><rect height="22" width="21.5625" y="112" x="115.140625" class="er attributeBoxOdd"></rect><text transform="translate(120.140625,123)" style="dominant-baseline: middle; font-size: 10.2px;" y="0" x="0" id="text-entity-Event-5fcfcec5-0af7-59ba-bebb-bb0a822c8afa-attr-5-key" class="er entityLabel"></text></g><rect height="14" width="84.4765625" y="169.5" x="276.855712890625" class="er relationshipLabelBox"></rect><text style="text-anchor: middle; dominant-baseline: middle; font-size: 12px;" y="176.5" x="319.093994140625" id="rel58" class="er relationshipLabel">owns_calendars</text><rect height="14" width="61.8125" y="127.79463195800781" x="125.72404479980469" class="er relationshipLabelBox"></rect><text style="text-anchor: middle; dominant-baseline: middle; font-size: 12px;" y="134.7946319580078" x="156.6302947998047" id="rel59" class="er relationshipLabel">owns_songs</text><rect height="13.999992370605469" width="61.5" y="115.69587326049805" x="578.011962890625" class="er relationshipLabelBox"></rect><text style="text-anchor: middle; dominant-baseline: middle; font-size: 12px;" y="122.69586944580078" x="608.761962890625" id="rel60" class="er relationshipLabel">owns_chats</text><rect height="14" width="77.3671875" y="124.68147277832031" x="442.863525390625" class="er relationshipLabelBox"></rect><text style="text-anchor: middle; dominant-baseline: middle; font-size: 12px;" y="131.6814727783203" x="481.547119140625" id="rel61" class="er relationshipLabel">owns_projects</text><rect height="14" width="92.171875" y="421.85296630859375" x="-126.08592987060547" class="er relationshipLabelBox"></rect><text style="text-anchor: middle; dominant-baseline: middle; font-size: 12px;" y="428.85296630859375" x="-79.99999237060547" id="rel62" class="er relationshipLabel">sends_invitations</text><rect height="14" width="86.2734375" y="392.5" x="275.957275390625" class="er relationshipLabelBox"></rect><text style="text-anchor: middle; dominant-baseline: middle; font-size: 12px;" y="399.5" x="319.093994140625" id="rel63" class="er relationshipLabel">contains_events</text><rect height="14" width="79" y="703.0853271484375" x="609.4175415039062" class="er relationshipLabelBox"></rect><text style="text-anchor: middle; dominant-baseline: middle; font-size: 12px;" y="710.0853271484375" x="648.9175415039062" id="rel64" class="er relationshipLabel">invitation_role</text><rect height="14" width="79.7578125" y="414.5" x="770.7111206054688" class="er relationshipLabelBox"></rect><text style="text-anchor: middle; dominant-baseline: middle; font-size: 12px;" y="421.5" x="810.5900268554688" id="rel65" class="er relationshipLabel">min_role_level</text></svg>